<?xml version="1.0" standalone="no"?>
<!DOCTYPE svg PUBLIC "-//W3C//DTD SVG 20010904//EN"
 "http://www.w3.org/TR/2001/REC-SVG-20010904/DTD/svg10.dtd">
<svg version="1.0" xmlns="http://www.w3.org/2000/svg"
 width="1600.000000pt" height="1600.000000pt" viewBox="0 0 1600.000000 1600.000000"
 preserveAspectRatio="xMidYMid meet">
<metadata>
Created by potrace 1.11, written by Peter Selinger 2001-2013
</metadata>
<g transform="translate(0.000000,1600.000000) scale(0.100000,-0.100000)"
fill="#000000" stroke="none">
<path d="M7880 11984 c-89 -24 -161 -65 -225 -129 -53 -54 -129 -180 -674
-1125 -337 -586 -621 -1073 -630 -1082 -9 -9 -493 -294 -1076 -633 -583 -339
-1080 -634 -1105 -654 -216 -180 -225 -525 -20 -714 43 -40 311 -198 1136
-672 l1081 -620 619 -1074 c539 -935 627 -1082 679 -1136 189 -194 507 -192
688 5 40 43 199 313 672 1137 l620 1080 1074 619 c936 540 1082 627 1136 679
194 189 192 507 -5 688 -43 39 -316 202 -1133 672 l-1077 620 -622 1074 c-464
799 -636 1088 -675 1131 -113 124 -299 178 -463 134z m1411 -2686 c714 -711
1299 -1295 1299 -1298 0 -3 -583 -585 -1296 -1294 l-1296 -1289 -1289 1289
c-709 709 -1288 1292 -1287 1295 4 9 2561 2589 2566 2589 2 0 588 -582 1303
-1292z"/>
<path d="M7220 8775 l-775 -775 778 -778 777 -777 777 777 778 778 -775 775
c-426 426 -777 775 -780 775 -3 0 -354 -349 -780 -775z"/>
</g>
</svg>
